<svg xmlns="http://www.w3.org/2000/svg" xmlns:xlink="http://www.w3.org/1999/xlink" width="250" zoomAndPan="magnify" viewBox="0 0 187.5 187.499992" height="250" preserveAspectRatio="xMidYMid meet" version="1.0"><defs><clipPath id="7f32f2b9b0"><path d="M 0.78125 0.78125 L 186.71875 0.78125 L 186.71875 186.71875 L 0.78125 186.71875 Z M 0.78125 0.78125 " clip-rule="nonzero"/></clipPath><clipPath id="e9bc9d8214"><path d="M 93.75 0.78125 C 42.40625 0.78125 0.78125 42.40625 0.78125 93.75 C 0.78125 145.09375 42.40625 186.71875 93.75 186.71875 C 145.09375 186.71875 186.71875 145.09375 186.71875 93.75 C 186.71875 42.40625 145.09375 0.78125 93.75 0.78125 " clip-rule="nonzero"/></clipPath></defs><g clip-path="url(#7f32f2b9b0)"><g clip-path="url(#e9bc9d8214)"><path fill="#3969e6" d="M 0.78125 0.78125 L 186.71875 0.78125 L 186.71875 186.71875 L 0.78125 186.71875 Z M 0.78125 0.78125 " fill-opacity="1" fill-rule="nonzero"/></g></g><path stroke-linecap="butt" transform="matrix(0.000000000000000046, 0.749828, -0.75, 0.000000000000000046, 100.869382, 14.959234)" fill="none" stroke-linejoin="miter" d="M 0.00227174 9.497718 L 195.562622 9.497718 " stroke="#ffffff" stroke-width="19" stroke-opacity="1" stroke-miterlimit="4"/><path stroke-linecap="round" transform="matrix(0.000000000000000046, 0.749828, -0.75, 0.000000000000000046, 100.869382, 14.959234)" fill="none" stroke-linejoin="round" d="M 157.564348 -19.002285 L 195.562622 9.497718 L 157.564348 37.997722 " stroke="#ffffff" stroke-width="19" stroke-opacity="1" stroke-miterlimit="4"/></svg>