<svg xmlns="http://www.w3.org/2000/svg" xmlns:xlink="http://www.w3.org/1999/xlink" width="250" zoomAndPan="magnify" viewBox="0 0 187.5 187.499992" height="250" preserveAspectRatio="xMidYMid meet" version="1.0"><defs><clipPath id="e7153a3035"><path d="M 0.78125 0.78125 L 186.71875 0.78125 L 186.71875 186.71875 L 0.78125 186.71875 Z M 0.78125 0.78125 " clip-rule="nonzero"/></clipPath><clipPath id="642348e718"><path d="M 93.75 0.78125 C 42.40625 0.78125 0.78125 42.40625 0.78125 93.75 C 0.78125 145.09375 42.40625 186.71875 93.75 186.71875 C 145.09375 186.71875 186.71875 145.09375 186.71875 93.75 C 186.71875 42.40625 145.09375 0.78125 93.75 0.78125 " clip-rule="nonzero"/></clipPath><clipPath id="07b29695a9"><path d="M 39 33.21875 L 148.992188 33.21875 L 148.992188 153.96875 L 39 153.96875 Z M 39 33.21875 " clip-rule="nonzero"/></clipPath></defs><g clip-path="url(#e7153a3035)"><g clip-path="url(#642348e718)"><path fill="#ff3131" d="M 0.78125 0.78125 L 186.71875 0.78125 L 186.71875 186.71875 L 0.78125 186.71875 Z M 0.78125 0.78125 " fill-opacity="1" fill-rule="nonzero"/></g></g><g clip-path="url(#07b29695a9)"><path fill="#ffffff" d="M 111.054688 93.59375 L 148.53125 37.648438 C 149.089844 36.808594 149.144531 35.730469 148.667969 34.84375 C 148.191406 33.953125 147.257812 33.394531 146.242188 33.394531 L 126.0625 33.394531 C 125.164062 33.394531 124.320312 33.832031 123.804688 34.570312 L 94.003906 77.175781 L 64.203125 34.570312 C 63.6875 33.832031 62.847656 33.394531 61.945312 33.394531 L 41.765625 33.394531 C 40.753906 33.394531 39.820312 33.949219 39.339844 34.839844 C 38.863281 35.730469 38.917969 36.808594 39.480469 37.648438 L 76.953125 93.59375 L 39.480469 149.539062 C 38.917969 150.378906 38.863281 151.457031 39.339844 152.347656 C 39.820312 153.234375 40.753906 153.792969 41.765625 153.792969 L 61.945312 153.792969 C 62.847656 153.792969 63.691406 153.355469 64.203125 152.621094 L 94.003906 110.011719 L 123.808594 152.621094 C 124.320312 153.355469 125.164062 153.792969 126.0625 153.792969 L 146.242188 153.792969 C 147.257812 153.792969 148.191406 153.238281 148.667969 152.347656 C 149.144531 151.460938 149.089844 150.378906 148.53125 149.539062 Z M 111.054688 93.59375 " fill-opacity="1" fill-rule="nonzero"/></g></svg>